<?xml version="1.0" encoding="utf-8"?>
<!-- Generator: Adobe Illustrator 21.1.0, SVG Export Plug-In . SVG Version: 6.00 Build 0)  -->
<svg version="1.1" id="Layer_1" xmlns="http://www.w3.org/2000/svg" xmlns:xlink="http://www.w3.org/1999/xlink" x="0px" y="0px"
	 viewBox="-49 141 512 512" style="enable-background:new -49 141 512 512;" xml:space="preserve">
<style type="text/css">
	.st0{fill:#FFFFFF;}
</style>
<path class="st0" d="M442.3,417.7H-28.3c-11.4,0-20.7-9.3-20.7-20.7c0-11.4,9.3-20.7,20.7-20.7h470.6c11.4,0,20.7,9.3,20.7,20.7
	C463,408.4,453.7,417.7,442.3,417.7z"/>
<path class="st0" d="M442.3,260.8H-28.3c-11.4,0-20.7-9.3-20.7-20.7s9.3-20.7,20.7-20.7h470.6c11.4,0,20.7,9.3,20.7,20.7
	S453.7,260.8,442.3,260.8z"/>
<path class="st0" d="M442.3,574.6H-28.3c-11.4,0-20.7-9.3-20.7-20.7s9.3-20.7,20.7-20.7h470.6c11.4,0,20.7,9.3,20.7,20.7
	S453.7,574.6,442.3,574.6z"/>
</svg>
